<svg width="120" height="32" viewBox="0 0 120 32" fill="none" xmlns="http://www.w3.org/2000/svg">
  <path d="M62.3027 9.14453H65.5791V22.8555H62.3027V9.14453Z" fill="#EA1D2C"/>
  <path d="M67.8555 16.0001C67.8555 12.1524 70.9533 8.85547 75.0001 8.85547C79.0469 8.85547 82.1447 12.1524 82.1447 16.0001C82.1447 19.8478 79.0469 23.1447 75.0001 23.1447C70.9533 23.1447 67.8555 19.8478 67.8555 16.0001ZM78.8683 16.0001C78.8683 13.8321 77.1681 12.132 75.0001 12.132C72.8321 12.132 71.1319 13.8321 71.1319 16.0001C71.1319 18.1681 72.8321 19.8683 75.0001 19.8683C77.1681 19.8683 78.8683 18.1681 78.8683 16.0001Z" fill="#EA1D2C"/>
  <path d="M83.7109 16.0001C83.7109 12.1524 86.8087 8.85547 90.8555 8.85547C94.9023 8.85547 98.0001 12.1524 98.0001 16.0001C98.0001 19.8478 94.9023 23.1447 90.8555 23.1447C86.8087 23.1447 83.7109 19.8478 83.7109 16.0001ZM94.7237 16.0001C94.7237 13.8321 93.0235 12.132 90.8555 12.132C88.6875 12.132 86.9873 13.8321 86.9873 16.0001C86.9873 18.1681 88.6875 19.8683 90.8555 19.8683C93.0235 19.8683 94.7237 18.1681 94.7237 16.0001Z" fill="#EA1D2C"/>
  <path d="M99.5664 9.14453H102.843V10.8447C103.699 9.43359 105.11 8.85547 106.521 8.85547C110.279 8.85547 112.736 11.7124 112.736 15.7592V22.8555H109.459V16.2892C109.459 13.8321 108.048 12.132 105.88 12.132C103.712 12.132 102.843 13.8321 102.843 16.2892V22.8555H99.5664V9.14453Z" fill="#EA1D2C"/>
  <path d="M7.14453 9.14453H10.421V10.8447C11.2772 9.43359 12.6883 8.85547 14.0994 8.85547C17.8573 8.85547 20.3144 11.7124 20.3144 15.7592V22.8555H17.0381V16.2892C17.0381 13.8321 15.627 12.132 13.4589 12.132C11.2909 12.132 10.421 13.8321 10.421 16.2892V22.8555H7.14453V9.14453Z" fill="#EA1D2C"/>
  <path d="M22.5908 16.0001C22.5908 12.1524 25.6886 8.85547 29.7354 8.85547C33.7822 8.85547 36.88 12.1524 36.88 16.0001C36.88 19.8478 33.7822 23.1447 29.7354 23.1447C25.6886 23.1447 22.5908 19.8478 22.5908 16.0001ZM33.6036 16.0001C33.6036 13.8321 31.9034 12.132 29.7354 12.132C27.5674 12.132 25.8672 13.8321 25.8672 16.0001C25.8672 18.1681 27.5674 19.8683 29.7354 19.8683C31.9034 19.8683 33.6036 18.1681 33.6036 16.0001Z" fill="#EA1D2C"/>
  <path d="M38.4463 16.0001C38.4463 12.1524 41.5441 8.85547 45.5909 8.85547C49.6377 8.85547 52.7355 12.1524 52.7355 16.0001C52.7355 19.8478 49.6377 23.1447 45.5909 23.1447C41.5441 23.1447 38.4463 19.8478 38.4463 16.0001ZM49.4591 16.0001C49.4591 13.8321 47.7589 12.132 45.5909 12.132C43.4229 12.132 41.7227 13.8321 41.7227 16.0001C41.7227 18.1681 43.4229 19.8683 45.5909 19.8683C47.7589 19.8683 49.4591 18.1681 49.4591 16.0001Z" fill="#EA1D2C"/>
  <path d="M54.3018 9.14453H57.5781V22.8555H54.3018V9.14453Z" fill="#EA1D2C"/>
</svg>
